<svg width="231" height="86" viewBox="0 0 231 86" fill="none" xmlns="http://www.w3.org/2000/svg">
<path d="M113.046 24.2372C110.531 23.0397 107.771 22.4497 104.986 22.5146H84.0074V62.6884H92.9897V51.5837H104.986C107.768 51.6583 110.529 51.0788 113.046 49.8919C115.282 48.8065 117.138 47.0691 118.367 44.9086C119.685 42.4983 120.333 39.7792 120.244 37.0338C120.327 34.2987 119.68 31.5909 118.367 29.1897C117.133 27.0406 115.278 25.3144 113.046 24.2372ZM109.57 42.1401C107.905 43.1706 105.955 43.6446 104.002 43.4936H92.9897V30.6047H104.002C105.958 30.4629 107.908 30.9477 109.57 31.989C110.222 32.6441 110.719 33.4378 111.022 34.3112C111.326 35.1846 111.429 36.1152 111.323 37.0338C111.438 37.9622 111.34 38.9047 111.037 39.7896C110.733 40.6744 110.231 41.4783 109.57 42.1401Z" fill="white"/>
<path d="M147.776 33.7417C145.074 32.556 142.144 31.9785 139.194 32.0498C136.172 31.9901 133.179 32.6435 130.457 33.957C128.037 35.187 126.011 37.074 124.613 39.4017C123.174 41.9286 122.45 44.8 122.521 47.7072C122.411 50.7553 123.134 53.7758 124.613 56.4433C126.009 58.7388 128.084 60.5445 130.55 61.6111C133.347 62.7646 136.353 63.33 139.378 63.2722C142.222 63.3387 145.052 62.8584 147.714 61.8572C149.889 61.0811 151.813 59.7312 153.282 57.9506C154.569 56.3106 155.263 54.283 155.251 52.1983V51.5215H146.269V52.1368C146.283 52.7251 146.139 53.3066 145.853 53.8205C145.566 54.3345 145.146 54.7622 144.638 55.059C142.902 55.874 140.983 56.2238 139.071 56.0742C136.809 56.3565 134.523 55.7742 132.672 54.4438C131.49 53.1186 130.862 51.3895 130.919 49.6144H155.312C155.312 49.0914 155.312 48.63 155.497 48.1686C155.681 47.7072 155.497 47.2458 155.497 46.7536C155.591 43.9549 154.875 41.1885 153.436 38.7865C152.101 36.573 150.128 34.8146 147.776 33.7417ZM139.009 39.0633C141.171 38.8575 143.339 39.3887 145.161 40.5706C145.721 41.112 146.162 41.7629 146.459 42.4828C146.755 43.2026 146.9 43.9758 146.884 44.7541H131.011C131.113 43.297 131.71 41.9184 132.703 40.8475C134.495 39.4599 136.755 38.8205 139.009 39.0633Z" fill="white"/>
<path d="M168.353 22.5137H159.371V62.6567H168.353V22.5137Z" fill="white"/>
<path d="M182.072 22.5137H173.09V62.6567H182.072V22.5137Z" fill="white"/>
<path d="M214.035 22.5137H191.61V29.5887H214.035V22.5137Z" fill="#0137FB"/>
<path d="M217.82 39.3716C216.337 37.009 214.2 35.1282 211.668 33.9577C208.868 32.6133 205.79 31.9493 202.685 32.0197C199.581 31.9528 196.504 32.6166 193.703 33.9577C191.165 35.119 189.026 37.002 187.551 39.3716C186.049 41.8766 185.292 44.7574 185.367 47.6771C185.309 50.5656 186.066 53.412 187.551 55.8902C189.034 58.2607 191.17 60.1516 193.703 61.3349C196.511 62.6514 199.585 63.304 202.685 63.2421C205.787 63.3073 208.861 62.6546 211.668 61.3349C214.195 60.1429 216.329 58.2539 217.82 55.8902C219.285 53.405 220.03 50.5614 219.973 47.6771C220.038 44.7626 219.292 41.8875 217.82 39.3716ZM209.207 53.4601C207.391 54.851 205.115 55.4998 202.839 55.275C200.553 55.5047 198.266 54.8558 196.441 53.4601C195.773 52.663 195.269 51.7418 194.957 50.7494C194.646 49.7571 194.533 48.713 194.626 47.6771C194.431 45.5557 195.083 43.4433 196.441 41.8017C198.242 40.3549 200.542 39.6802 202.839 39.9253C205.126 39.6852 207.415 40.3598 209.207 41.8017C210.564 43.4433 211.217 45.5557 211.022 47.6771C211.114 48.713 211.002 49.7571 210.69 50.7494C210.379 51.7418 209.875 52.663 209.207 53.4601Z" fill="white"/>
<path d="M64.2282 12.3311L73.7949 21.8977H73.8257V73.4531H19.9324L10.3658 63.8557V12.3311H64.2282Z" fill="#0137FB"/>
<path d="M68.7492 27.0342H25.0378V68.3769H68.7492V27.0342Z" fill="white"/>
<path d="M60.2605 35.0029V42.1702H45.5875L60.2605 56.8432L55.2157 61.888L40.5427 47.215V61.888H33.3754V35.0029H60.2605Z" fill="#001630"/>
</svg>
