<svg width="231" height="67" viewBox="0 0 231 67" fill="none" xmlns="http://www.w3.org/2000/svg">
<g clip-path="url(#clip0_2390_4850)">
<path d="M113.236 13.4413C110.475 12.126 107.442 11.4779 104.384 11.5493H81.3418V55.6746H91.2075V43.4776H104.384C107.44 43.5595 110.472 42.923 113.236 41.6194C115.693 40.4273 117.731 38.519 119.082 36.1459C120.529 33.4986 121.24 30.512 121.142 27.4966C121.234 24.4925 120.523 21.5184 119.082 18.881C117.725 16.5204 115.688 14.6244 113.236 13.4413ZM109.419 33.1051C107.589 34.237 105.448 34.7576 103.303 34.5917H91.2075V20.4351H103.303C105.451 20.2793 107.593 20.8119 109.419 21.9555C110.135 22.675 110.681 23.5469 111.014 24.5062C111.347 25.4655 111.46 26.4876 111.344 27.4966C111.471 28.5163 111.363 29.5515 111.03 30.5234C110.696 31.4953 110.145 32.3782 109.419 33.1051Z" fill="white"/>
<path d="M151.383 23.8804C148.414 22.5781 145.196 21.9437 141.956 22.0221C138.637 21.9565 135.35 22.6742 132.361 24.1169C129.702 25.4679 127.477 27.5404 125.941 30.0971C124.36 32.8725 123.566 36.0264 123.644 39.2195C123.522 42.5674 124.317 45.885 125.941 48.8149C127.475 51.3362 129.753 53.3195 132.462 54.4911C135.535 55.758 138.836 56.379 142.159 56.3155C145.282 56.3886 148.391 55.861 151.315 54.7614C153.703 53.9089 155.816 52.4262 157.43 50.4704C158.844 48.6691 159.606 46.4422 159.593 44.1523V43.409H149.727V44.0848C149.743 44.731 149.585 45.3697 149.27 45.9342C148.955 46.4987 148.494 46.9685 147.936 47.2945C146.029 48.1896 143.922 48.5738 141.821 48.4095C139.336 48.7196 136.826 48.08 134.793 46.6188C133.495 45.1632 132.805 43.264 132.867 41.3143H159.66C159.66 40.7399 159.66 40.2331 159.863 39.7263C160.066 39.2195 159.863 38.7127 159.863 38.1721C159.966 35.0981 159.18 32.0597 157.599 29.4214C156.133 26.9901 153.966 25.0588 151.383 23.8804ZM141.753 29.7254C144.128 29.4994 146.509 30.0828 148.511 31.381C149.125 31.9756 149.61 32.6906 149.936 33.4812C150.261 34.2718 150.42 35.1211 150.403 35.976H132.969C133.08 34.3755 133.736 32.8613 134.827 31.6851C136.796 30.161 139.278 29.4587 141.753 29.7254Z" fill="white"/>
<path d="M173.984 11.5479H164.118V55.6394H173.984V11.5479Z" fill="white"/>
<path d="M189.052 11.5479H179.186V55.6394H189.052V11.5479Z" fill="white"/>
<path d="M224.159 11.5479H199.529V19.3188H224.159V11.5479Z" fill="white"/>
<path d="M228.316 30.064C226.687 27.469 224.34 25.4032 221.559 24.1175C218.484 22.6409 215.103 21.9116 211.693 21.989C208.283 21.9154 204.904 22.6446 201.827 24.1175C199.04 25.3931 196.69 27.4613 195.07 30.064C193.421 32.8153 192.588 35.9795 192.671 39.1864C192.608 42.359 193.439 45.4854 195.07 48.2074C196.698 50.811 199.045 52.888 201.827 54.1876C204.912 55.6336 208.287 56.3504 211.693 56.2824C215.099 56.354 218.476 55.6371 221.559 54.1876C224.335 52.8783 226.679 50.8036 228.316 48.2074C229.925 45.4777 230.744 42.3545 230.681 39.1864C230.752 35.9853 229.934 32.8273 228.316 30.064ZM218.856 45.5383C216.862 47.066 214.362 47.7786 211.862 47.5317C209.351 47.7839 206.839 47.0712 204.834 45.5383C204.101 44.6627 203.547 43.6509 203.205 42.5609C202.863 41.471 202.739 40.3242 202.841 39.1864C202.626 36.8564 203.343 34.5362 204.834 32.7331C206.812 31.144 209.339 30.403 211.862 30.6721C214.374 30.4084 216.888 31.1493 218.856 32.7331C220.347 34.5362 221.064 36.8564 220.849 39.1864C220.951 40.3242 220.828 41.471 220.485 42.5609C220.143 43.6509 219.59 44.6627 218.856 45.5383Z" fill="white"/>
<path d="M59.6171 0.363281L70.1247 10.8709H70.1585V67.4973H10.9643L0.456665 56.9559V0.363281H59.6171Z" fill="white"/>
<path d="M64.5827 16.5127H16.5719V61.9219H64.5827V16.5127Z" fill="black"/>
<path d="M55.259 25.2656V33.1379H39.1428L55.259 49.2541L49.718 54.7952L33.6018 38.6789V54.7952H25.7295V25.2656H55.259Z" fill="white"/>
</g>
<defs>
<clipPath id="clip0_2390_4850">
<rect width="230.656" height="67" fill="white"/>
</clipPath>
</defs>
</svg>
